<?xml version="1.0" standalone="no"?>
<svg xmlns:xlink="http://www.w3.org/1999/xlink" id="wave" style="transform:rotate(180deg); transition: 0.3s" viewBox="0 0 1440 150" version="1.1" xmlns="http://www.w3.org/2000/svg"><defs><linearGradient id="sw-gradient-0" x1="0" x2="0" y1="1" y2="0"><stop stop-color="rgba(255, 234, 253, 1)" offset="0%"/><stop stop-color="rgba(255, 234, 253, 1)" offset="100%"/></linearGradient></defs><path style="transform:translate(0, 0px); opacity:1" fill="url(#sw-gradient-0)" d="M0,75L40,77.5C80,80,160,85,240,80C320,75,400,60,480,55C560,50,640,55,720,65C800,75,880,90,960,95C1040,100,1120,95,1200,85C1280,75,1360,60,1440,52.5C1520,45,1600,45,1680,57.5C1760,70,1840,95,1920,110C2000,125,2080,130,2160,130C2240,130,2320,125,2400,102.5C2480,80,2560,40,2640,22.5C2720,5,2800,10,2880,27.5C2960,45,3040,75,3120,90C3200,105,3280,105,3360,107.5C3440,110,3520,115,3600,107.5C3680,100,3760,80,3840,60C3920,40,4000,20,4080,10C4160,0,4240,0,4320,0C4400,0,4480,0,4560,0C4640,0,4720,0,4800,17.5C4880,35,4960,70,5040,87.5C5120,105,5200,105,5280,102.5C5360,100,5440,95,5520,95C5600,95,5680,100,5720,102.5L5760,105L5760,150L5720,150C5680,150,5600,150,5520,150C5440,150,5360,150,5280,150C5200,150,5120,150,5040,150C4960,150,4880,150,4800,150C4720,150,4640,150,4560,150C4480,150,4400,150,4320,150C4240,150,4160,150,4080,150C4000,150,3920,150,3840,150C3760,150,3680,150,3600,150C3520,150,3440,150,3360,150C3280,150,3200,150,3120,150C3040,150,2960,150,2880,150C2800,150,2720,150,2640,150C2560,150,2480,150,2400,150C2320,150,2240,150,2160,150C2080,150,2000,150,1920,150C1840,150,1760,150,1680,150C1600,150,1520,150,1440,150C1360,150,1280,150,1200,150C1120,150,1040,150,960,150C880,150,800,150,720,150C640,150,560,150,480,150C400,150,320,150,240,150C160,150,80,150,40,150L0,150Z"/></svg>